# Blender 5.0.1
# www.blender.org
mtllib SM_Skewer_Stick.mtl
o Cylinder
v -0.000000 -0.351135 -0.002024
v -0.000000 -0.305876 -0.009253
v -0.000000 -0.344497 -0.005035
v -0.000000 -0.332046 -0.007934
v -0.000000 0.637633 -0.002024
v -0.000000 0.592374 -0.009253
v -0.000000 0.630995 -0.005035
v -0.000000 0.618544 -0.007934
v 0.001431 -0.351135 -0.001431
v 0.006543 -0.305876 -0.006543
v 0.003560 -0.344497 -0.003560
v 0.005610 -0.332046 -0.005610
v 0.001431 0.637633 -0.001431
v 0.006543 0.592375 -0.006543
v 0.003560 0.630995 -0.003560
v 0.005610 0.618544 -0.005610
v 0.002024 -0.351135 -0.000000
v 0.009253 -0.305876 -0.000000
v 0.005035 -0.344497 -0.000000
v 0.007934 -0.332046 -0.000000
v 0.002024 0.637633 0.000000
v 0.009253 0.592375 0.000000
v 0.005035 0.630995 0.000000
v 0.007934 0.618544 0.000000
v 0.001431 -0.351135 0.001431
v 0.006543 -0.305876 0.006543
v 0.003560 -0.344497 0.003560
v 0.005610 -0.332046 0.005610
v 0.001431 0.637633 0.001431
v 0.006543 0.592375 0.006543
v 0.003560 0.630995 0.003560
v 0.005610 0.618544 0.005610
v -0.000000 -0.351135 0.002024
v -0.000000 -0.305876 0.009253
v -0.000000 -0.344497 0.005035
v -0.000000 -0.332046 0.007934
v -0.000000 0.637633 0.002024
v -0.000000 0.592375 0.009253
v -0.000000 0.630995 0.005035
v -0.000000 0.618544 0.007934
v -0.001431 -0.351135 0.001431
v -0.006543 -0.305876 0.006543
v -0.003560 -0.344497 0.003560
v -0.005610 -0.332046 0.005610
v -0.001431 0.637633 0.001431
v -0.006543 0.592375 0.006543
v -0.003560 0.630995 0.003560
v -0.005610 0.618544 0.005610
v -0.002024 -0.351135 0.000000
v -0.009253 -0.305876 -0.000000
v -0.005035 -0.344497 0.000000
v -0.007934 -0.332046 -0.000000
v -0.002024 0.637633 -0.000000
v -0.009253 0.592375 0.000000
v -0.005035 0.630995 -0.000000
v -0.007934 0.618544 0.000000
v -0.001431 -0.351135 -0.001431
v -0.006543 -0.305876 -0.006543
v -0.003560 -0.344497 -0.003560
v -0.005610 -0.332046 -0.005610
v -0.001431 0.637633 -0.001431
v -0.006543 0.592375 -0.006543
v -0.003560 0.630995 -0.003560
v -0.005610 0.618544 -0.005610
v -0.000000 -0.226694 -0.009448
v -0.000000 -0.134208 -0.009448
v -0.000000 -0.041723 -0.009448
v -0.000000 0.050763 -0.009448
v -0.000000 0.143249 -0.009448
v -0.000000 0.235735 -0.009448
v -0.000000 0.328221 -0.009448
v -0.000000 0.420707 -0.009448
v -0.000000 0.513193 -0.009448
v 0.006681 0.513193 -0.006681
v 0.006681 0.420707 -0.006681
v 0.006681 0.328221 -0.006681
v 0.006681 0.235735 -0.006681
v 0.006681 0.143249 -0.006681
v 0.006681 0.050763 -0.006681
v 0.006681 -0.041723 -0.006681
v 0.006681 -0.134208 -0.006681
v 0.006681 -0.226694 -0.006681
v -0.006681 -0.226694 -0.006681
v -0.006681 -0.134208 -0.006681
v -0.006681 -0.041723 -0.006681
v -0.006681 0.050763 -0.006681
v -0.006681 0.143249 -0.006681
v -0.006681 0.235735 -0.006681
v -0.006681 0.328221 -0.006681
v -0.006681 0.420707 -0.006681
v -0.006681 0.513193 -0.006681
v 0.009448 0.513193 -0.000000
v 0.009448 0.420707 0.000000
v 0.009448 0.328221 0.000000
v 0.009448 0.235735 0.000000
v 0.009448 0.143249 0.000000
v 0.009448 0.050763 0.000000
v 0.009448 -0.041723 0.000000
v 0.009448 -0.134208 0.000000
v 0.009448 -0.226694 0.000000
v 0.006681 0.513193 0.006681
v 0.006681 0.420707 0.006681
v 0.006681 0.328221 0.006681
v 0.006681 0.235735 0.006681
v 0.006681 0.143249 0.006681
v 0.006681 0.050763 0.006681
v 0.006681 -0.041723 0.006681
v 0.006681 -0.134208 0.006681
v 0.006681 -0.226694 0.006681
v -0.000000 0.513193 0.009448
v -0.000000 0.420707 0.009448
v -0.000000 0.328221 0.009448
v -0.000000 0.235735 0.009448
v -0.000000 0.143249 0.009448
v -0.000000 0.050763 0.009448
v -0.000000 -0.041723 0.009448
v -0.000000 -0.134208 0.009448
v -0.000000 -0.226694 0.009448
v -0.006681 0.513193 0.006681
v -0.006681 0.420707 0.006681
v -0.006681 0.328221 0.006681
v -0.006681 0.235735 0.006681
v -0.006681 0.143249 0.006681
v -0.006681 0.050763 0.006681
v -0.006681 -0.041723 0.006681
v -0.006681 -0.134208 0.006681
v -0.006681 -0.226694 0.006681
v -0.009448 0.513193 0.000000
v -0.009448 0.420707 0.000000
v -0.009448 0.328221 0.000000
v -0.009448 0.235735 0.000000
v -0.009448 0.143249 0.000000
v -0.009448 0.050763 0.000000
v -0.009448 -0.041723 0.000000
v -0.009448 -0.134208 0.000000
v -0.009448 -0.226694 0.000000
v -0.000000 0.638714 -0.000000
v -0.000000 -0.352216 0.000000
v -0.000000 -0.323873 -0.008794
v 0.003537 -0.305876 -0.008538
v 0.006218 -0.323873 -0.006218
v 0.003033 -0.332046 -0.007322
v -0.000000 -0.338657 -0.006622
v 0.004683 -0.338657 -0.004683
v 0.001924 -0.344497 -0.004646
v -0.000000 -0.348684 -0.003412
v 0.002412 -0.348684 -0.002412
v 0.000781 -0.351135 -0.001885
v 0.006218 0.610372 -0.006218
v 0.003537 0.592375 -0.008538
v -0.000000 0.610372 -0.008794
v 0.003033 0.618544 -0.007322
v 0.004683 0.625156 -0.004683
v -0.000000 0.625156 -0.006622
v 0.001924 0.630995 -0.004646
v 0.002412 0.635182 -0.002412
v -0.000000 0.635182 -0.003412
v 0.000781 0.637633 -0.001885
v 0.008538 -0.305876 -0.003537
v 0.008794 -0.323873 -0.000000
v 0.007322 -0.332046 -0.003033
v 0.006622 -0.338657 -0.000000
v 0.004646 -0.344497 -0.001924
v 0.003412 -0.348684 -0.000000
v 0.001885 -0.351135 -0.000781
v 0.008794 0.610372 0.000000
v 0.008538 0.592375 -0.003537
v 0.007322 0.618544 -0.003033
v 0.006622 0.625156 0.000000
v 0.004646 0.630995 -0.001924
v 0.003412 0.635182 0.000000
v 0.001885 0.637633 -0.000781
v 0.008538 -0.305876 0.003537
v 0.006218 -0.323873 0.006218
v 0.007322 -0.332046 0.003033
v 0.004683 -0.338657 0.004683
v 0.004646 -0.344497 0.001924
v 0.002412 -0.348684 0.002412
v 0.001885 -0.351135 0.000781
v 0.006218 0.610372 0.006218
v 0.008538 0.592375 0.003537
v 0.007322 0.618544 0.003033
v 0.004683 0.625156 0.004683
v 0.004646 0.630995 0.001924
v 0.002412 0.635182 0.002412
v 0.001885 0.637633 0.000781
v 0.003537 -0.305876 0.008538
v -0.000000 -0.323873 0.008794
v 0.003033 -0.332046 0.007322
v -0.000000 -0.338657 0.006622
v 0.001924 -0.344497 0.004646
v -0.000000 -0.348684 0.003412
v 0.000781 -0.351135 0.001885
v -0.000000 0.610372 0.008794
v 0.003537 0.592375 0.008538
v 0.003033 0.618544 0.007322
v -0.000000 0.625156 0.006622
v 0.001924 0.630995 0.004646
v -0.000000 0.635182 0.003412
v 0.000781 0.637633 0.001885
v -0.003537 -0.305876 0.008538
v -0.006218 -0.323873 0.006218
v -0.003033 -0.332046 0.007322
v -0.004683 -0.338657 0.004683
v -0.001924 -0.344497 0.004646
v -0.002412 -0.348684 0.002412
v -0.000781 -0.351135 0.001885
v -0.006218 0.610372 0.006218
v -0.003537 0.592375 0.008538
v -0.003033 0.618544 0.007322
v -0.004683 0.625156 0.004683
v -0.001924 0.630995 0.004646
v -0.002412 0.635182 0.002412
v -0.000781 0.637633 0.001885
v -0.008538 -0.305876 0.003537
v -0.008794 -0.323873 -0.000000
v -0.007322 -0.332046 0.003033
v -0.006622 -0.338657 0.000000
v -0.004646 -0.344497 0.001924
v -0.003412 -0.348684 0.000000
v -0.001885 -0.351135 0.000781
v -0.008794 0.610372 0.000000
v -0.008538 0.592375 0.003537
v -0.007322 0.618544 0.003033
v -0.006622 0.625156 -0.000000
v -0.004646 0.630995 0.001924
v -0.003412 0.635182 -0.000000
v -0.001885 0.637633 0.000781
v -0.008538 -0.305876 -0.003537
v -0.006218 -0.323873 -0.006218
v -0.007322 -0.332046 -0.003033
v -0.004683 -0.338657 -0.004683
v -0.004646 -0.344497 -0.001924
v -0.002412 -0.348684 -0.002412
v -0.001885 -0.351135 -0.000781
v -0.006218 0.610372 -0.006218
v -0.008538 0.592375 -0.003537
v -0.007322 0.618544 -0.003033
v -0.004683 0.625156 -0.004683
v -0.004646 0.630995 -0.001924
v -0.002412 0.635182 -0.002412
v -0.001885 0.637633 -0.000781
v -0.003537 -0.305876 -0.008538
v -0.003033 -0.332046 -0.007322
v -0.001924 -0.344497 -0.004646
v -0.000781 -0.351135 -0.001885
v -0.003537 0.592375 -0.008538
v -0.003033 0.618544 -0.007322
v -0.001924 0.630995 -0.004646
v -0.000781 0.637633 -0.001885
v -0.000000 0.557773 -0.009424
v 0.006664 -0.271274 -0.006664
v -0.006664 0.557773 -0.006664
v 0.009424 -0.271274 0.000000
v 0.006664 -0.271274 0.006664
v -0.000000 -0.271274 0.009424
v -0.006664 -0.271274 0.006664
v -0.009424 -0.271274 0.000000
v -0.000000 -0.271274 -0.009424
v -0.000000 -0.180451 -0.009448
v -0.000000 -0.087966 -0.009448
v -0.000000 0.004520 -0.009448
v -0.000000 0.097006 -0.009448
v -0.000000 0.189492 -0.009448
v -0.000000 0.281978 -0.009448
v -0.000000 0.374464 -0.009448
v -0.000000 0.466950 -0.009448
v 0.006664 0.557773 -0.006664
v 0.006681 0.466950 -0.006681
v 0.006681 0.374464 -0.006681
v 0.006681 0.281978 -0.006681
v 0.006681 0.189492 -0.006681
v 0.006681 0.097006 -0.006681
v 0.006681 0.004520 -0.006681
v 0.006681 -0.087966 -0.006681
v 0.006681 -0.180451 -0.006681
v -0.006664 -0.271274 -0.006664
v -0.006681 -0.180451 -0.006681
v -0.006681 -0.087966 -0.006681
v -0.006681 0.004520 -0.006681
v -0.006681 0.097006 -0.006681
v -0.006681 0.189492 -0.006681
v -0.006681 0.281978 -0.006681
v -0.006681 0.374464 -0.006681
v -0.006681 0.466950 -0.006681
v 0.009424 0.557773 0.000000
v 0.009448 0.466950 0.000000
v 0.009448 0.374464 0.000000
v 0.009448 0.281978 0.000000
v 0.009448 0.189492 0.000000
v 0.009448 0.097006 0.000000
v 0.009448 0.004520 0.000000
v 0.009448 -0.087966 0.000000
v 0.009448 -0.180451 0.000000
v 0.006664 0.557773 0.006664
v 0.006681 0.466950 0.006681
v 0.006681 0.374464 0.006681
v 0.006681 0.281978 0.006681
v 0.006681 0.189492 0.006681
v 0.006681 0.097006 0.006681
v 0.006681 0.004520 0.006681
v 0.006681 -0.087966 0.006681
v 0.006681 -0.180451 0.006681
v -0.000000 0.557773 0.009424
v -0.000000 0.466950 0.009448
v -0.000000 0.374464 0.009448
v -0.000000 0.281978 0.009448
v -0.000000 0.189492 0.009448
v -0.000000 0.097006 0.009448
v -0.000000 0.004520 0.009448
v -0.000000 -0.087966 0.009448
v -0.000000 -0.180451 0.009448
v -0.006664 0.557773 0.006664
v -0.006681 0.466950 0.006681
v -0.006681 0.374464 0.006681
v -0.006681 0.281978 0.006681
v -0.006681 0.189492 0.006681
v -0.006681 0.097006 0.006681
v -0.006681 0.004520 0.006681
v -0.006681 -0.087966 0.006681
v -0.006681 -0.180451 0.006681
v -0.009424 0.557773 -0.000000
v -0.009448 0.466950 -0.000000
v -0.009448 0.374464 -0.000000
v -0.009448 0.281978 -0.000000
v -0.009448 0.189492 -0.000000
v -0.009448 0.097006 -0.000000
v -0.009448 0.004520 -0.000000
v -0.009448 -0.087966 -0.000000
v -0.009448 -0.180451 -0.000000
v -0.008719 -0.226694 -0.003612
v -0.008719 -0.134208 -0.003612
v -0.008719 -0.041723 -0.003612
v -0.008719 0.050763 -0.003612
v -0.008719 0.143249 -0.003612
v -0.008719 0.235735 -0.003612
v -0.008719 0.328221 -0.003612
v -0.008719 0.420707 -0.003612
v -0.008719 0.513193 -0.003612
v -0.008719 -0.226694 0.003612
v -0.008719 -0.134208 0.003612
v -0.008719 -0.041723 0.003612
v -0.008719 0.050763 0.003612
v -0.008719 0.143249 0.003612
v -0.008719 0.235735 0.003612
v -0.008719 0.328221 0.003612
v -0.008719 0.420707 0.003612
v -0.008719 0.513193 0.003612
v -0.003612 -0.226694 0.008719
v -0.003612 -0.134208 0.008719
v -0.003612 -0.041723 0.008719
v -0.003612 0.050763 0.008719
v -0.003612 0.143249 0.008719
v -0.003612 0.235735 0.008719
v -0.003612 0.328221 0.008719
v -0.003612 0.420707 0.008719
v -0.003612 0.513193 0.008719
v 0.003612 -0.226694 0.008719
v 0.003612 -0.134208 0.008719
v 0.003612 -0.041723 0.008719
v 0.003612 0.050763 0.008719
v 0.003612 0.143249 0.008719
v 0.003612 0.235735 0.008719
v 0.003612 0.328221 0.008719
v 0.003612 0.420707 0.008719
v 0.003612 0.513193 0.008719
v 0.008719 -0.226694 0.003612
v 0.008719 -0.134208 0.003612
v 0.008719 -0.041723 0.003612
v 0.008719 0.050763 0.003612
v 0.008719 0.143249 0.003612
v 0.008719 0.235735 0.003612
v 0.008719 0.328221 0.003612
v 0.008719 0.420707 0.003612
v 0.008719 0.513193 0.003612
v 0.008719 -0.226694 -0.003612
v 0.008719 -0.134208 -0.003612
v 0.008719 -0.041723 -0.003612
v 0.008719 0.050763 -0.003612
v 0.008719 0.143249 -0.003612
v 0.008719 0.235735 -0.003612
v 0.008719 0.328221 -0.003612
v 0.008719 0.420707 -0.003612
v 0.008719 0.513193 -0.003612
v -0.003612 -0.226694 -0.008719
v -0.003612 -0.134208 -0.008719
v -0.003612 -0.041723 -0.008719
v -0.003612 0.050763 -0.008719
v -0.003612 0.143249 -0.008719
v -0.003612 0.235735 -0.008719
v -0.003612 0.328221 -0.008719
v -0.003612 0.420707 -0.008719
v -0.003612 0.513193 -0.008719
v 0.003612 -0.226694 -0.008719
v 0.003612 -0.134208 -0.008719
v 0.003612 -0.041723 -0.008719
v 0.003612 0.050763 -0.008719
v 0.003612 0.143249 -0.008719
v 0.003612 0.235735 -0.008719
v 0.003612 0.328221 -0.008719
v 0.003612 0.420707 -0.008719
v 0.003612 0.513193 -0.008719
v 0.000736 0.638579 -0.000736
v -0.000000 0.638579 -0.001040
v -0.000736 0.638579 -0.000736
v -0.001040 0.638579 -0.000000
v -0.000736 0.638579 0.000736
v -0.000000 0.638579 0.001040
v 0.000736 0.638579 0.000736
v 0.001040 0.638579 0.000000
v -0.000000 -0.352081 -0.001040
v 0.000736 -0.352081 -0.000736
v 0.001040 -0.352081 -0.000000
v 0.000736 -0.352081 0.000736
v -0.000000 -0.352081 0.001040
v -0.000736 -0.352081 0.000736
v -0.001040 -0.352081 0.000000
v -0.000736 -0.352081 -0.000736
v 0.003361 -0.323873 -0.008115
v 0.002531 -0.338657 -0.006111
v 0.001305 -0.348684 -0.003150
v 0.003361 0.610372 -0.008115
v 0.002531 0.625156 -0.006111
v 0.001305 0.635182 -0.003150
v 0.008115 -0.323873 -0.003361
v 0.006111 -0.338657 -0.002531
v 0.003150 -0.348684 -0.001305
v 0.008115 0.610372 -0.003361
v 0.006111 0.625156 -0.002531
v 0.003150 0.635182 -0.001305
v 0.008115 -0.323873 0.003361
v 0.006111 -0.338657 0.002531
v 0.003150 -0.348684 0.001305
v 0.008115 0.610372 0.003361
v 0.006111 0.625156 0.002531
v 0.003150 0.635182 0.001305
v 0.003361 -0.323873 0.008115
v 0.002531 -0.338657 0.006111
v 0.001305 -0.348684 0.003150
v 0.003361 0.610372 0.008115
v 0.002531 0.625156 0.006111
v 0.001305 0.635182 0.003150
v -0.003361 -0.323873 0.008115
v -0.002531 -0.338657 0.006111
v -0.001305 -0.348684 0.003150
v -0.003361 0.610372 0.008115
v -0.002531 0.625156 0.006111
v -0.001305 0.635182 0.003150
v -0.008115 -0.323873 0.003361
v -0.006111 -0.338657 0.002531
v -0.003150 -0.348684 0.001305
v -0.008115 0.610372 0.003361
v -0.006111 0.625156 0.002531
v -0.003150 0.635182 0.001305
v -0.008115 -0.323873 -0.003361
v -0.006111 -0.338657 -0.002531
v -0.003150 -0.348684 -0.001305
v -0.008115 0.610372 -0.003361
v -0.006111 0.625156 -0.002531
v -0.003150 0.635182 -0.001305
v -0.003361 -0.323873 -0.008115
v -0.002531 -0.338657 -0.006111
v -0.001305 -0.348684 -0.003150
v -0.003361 0.610372 -0.008115
v -0.002531 0.625156 -0.006111
v -0.001305 0.635182 -0.003150
v 0.003602 0.557773 -0.008697
v -0.003602 0.557773 -0.008697
v 0.000469 -0.352013 -0.001131
v 0.008697 0.557773 -0.003602
v 0.008697 0.557773 0.003602
v 0.003602 0.557773 0.008697
v -0.003602 0.557773 0.008697
v -0.008697 0.557773 0.003602
v -0.008697 0.557773 -0.003602
v -0.008697 -0.271274 -0.003602
v -0.008719 -0.180451 -0.003612
v -0.008719 -0.087966 -0.003612
v -0.008719 0.004520 -0.003612
v -0.008719 0.097006 -0.003612
v -0.008719 0.189492 -0.003612
v -0.008719 0.281978 -0.003612
v -0.008719 0.374464 -0.003612
v -0.008719 0.466950 -0.003612
v -0.008697 -0.271274 0.003602
v -0.008719 -0.180451 0.003612
v -0.008719 -0.087966 0.003612
v -0.008719 0.004520 0.003612
v -0.008719 0.097006 0.003612
v -0.008719 0.189492 0.003612
v -0.008719 0.281978 0.003612
v -0.008719 0.374464 0.003612
v -0.008719 0.466950 0.003612
v -0.003602 -0.271274 0.008697
v -0.003612 -0.180451 0.008719
v -0.003612 -0.087966 0.008719
v -0.003612 0.004520 0.008719
v -0.003612 0.097006 0.008719
v -0.003612 0.189492 0.008719
v -0.003612 0.281978 0.008719
v -0.003612 0.374464 0.008719
v -0.003612 0.466950 0.008719
v 0.003602 -0.271274 0.008697
v 0.003612 -0.180451 0.008719
v 0.003612 -0.087966 0.008719
v 0.003612 0.004520 0.008719
v 0.003612 0.097006 0.008719
v 0.003612 0.189492 0.008719
v 0.003612 0.281978 0.008719
v 0.003612 0.374464 0.008719
v 0.003612 0.466950 0.008719
v 0.008697 -0.271274 0.003602
v 0.008719 -0.180451 0.003612
v 0.008719 -0.087966 0.003612
v 0.008719 0.004520 0.003612
v 0.008719 0.097006 0.003612
v 0.008719 0.189492 0.003612
v 0.008719 0.281978 0.003612
v 0.008719 0.374464 0.003612
v 0.008719 0.466950 0.003612
v 0.008697 -0.271274 -0.003602
v 0.008719 -0.180451 -0.003612
v 0.008719 -0.087966 -0.003612
v 0.008719 0.004520 -0.003612
v 0.008719 0.097006 -0.003612
v 0.008719 0.189492 -0.003612
v 0.008719 0.281978 -0.003612
v 0.008719 0.374464 -0.003612
v 0.008719 0.466950 -0.003612
v -0.003602 -0.271274 -0.008697
v -0.003612 -0.180451 -0.008719
v -0.003612 -0.087966 -0.008719
v -0.003612 0.004520 -0.008719
v -0.003612 0.097006 -0.008719
v -0.003612 0.189492 -0.008719
v -0.003612 0.281978 -0.008719
v -0.003612 0.374464 -0.008719
v -0.003612 0.466950 -0.008719
v 0.003602 -0.271274 -0.008697
v 0.003612 -0.180451 -0.008719
v 0.003612 -0.087966 -0.008719
v 0.003612 0.004520 -0.008719
v 0.003612 0.097006 -0.008719
v 0.003612 0.189492 -0.008719
v 0.003612 0.281978 -0.008719
v 0.003612 0.374464 -0.008719
v 0.003612 0.466950 -0.008719
v 0.000469 0.638512 -0.001131
v -0.000469 0.638512 -0.001131
v -0.001131 0.638512 -0.000469
v -0.001131 0.638512 0.000469
v -0.000469 0.638512 0.001131
v 0.000469 0.638512 0.001131
v 0.001131 0.638512 0.000469
v 0.001131 0.638512 -0.000469
v 0.001131 -0.352013 -0.000469
v 0.001131 -0.352013 0.000469
v 0.000469 -0.352013 0.001131
v -0.000469 -0.352013 0.001131
v -0.001131 -0.352013 0.000469
v -0.001131 -0.352013 -0.000469
v -0.000469 -0.352013 -0.001131
vn -0.0000 -0.5910 -0.8067
vn -0.0000 -0.0152 -0.9999
vn -0.0000 -0.3103 -0.9507
vn -0.0000 -0.1489 -0.9888
vn -0.0000 0.5910 -0.8067
vn -0.0000 0.0152 -0.9999
vn -0.0000 0.3103 -0.9507
vn -0.0000 0.1489 -0.9888
vn 0.5704 -0.5910 -0.5704
vn 0.7070 -0.0152 -0.7070
vn 0.6722 -0.3103 -0.6722
vn 0.6992 -0.1489 -0.6992
vn 0.5704 0.5910 -0.5704
vn 0.7070 0.0152 -0.7070
vn 0.6722 0.3103 -0.6722
vn 0.6992 0.1489 -0.6992
vn 0.8067 -0.5910 -0.0000
vn 0.9999 -0.0152 -0.0000
vn 0.9507 -0.3103 -0.0000
vn 0.9888 -0.1489 -0.0000
vn 0.8067 0.5910 -0.0000
vn 0.9999 0.0152 -0.0000
vn 0.9507 0.3103 -0.0000
vn 0.9888 0.1489 -0.0000
vn 0.5704 -0.5910 0.5704
vn 0.7070 -0.0152 0.7070
vn 0.6722 -0.3103 0.6722
vn 0.6992 -0.1489 0.6992
vn 0.5704 0.5910 0.5704
vn 0.7070 0.0152 0.7070
vn 0.6722 0.3103 0.6722
vn 0.6992 0.1489 0.6992
vn -0.0000 -0.5910 0.8067
vn -0.0000 -0.0152 0.9999
vn -0.0000 -0.3103 0.9507
vn -0.0000 -0.1489 0.9888
vn -0.0000 0.5910 0.8067
vn -0.0000 0.0152 0.9999
vn -0.0000 0.3103 0.9507
vn -0.0000 0.1489 0.9888
vn -0.5704 -0.5910 0.5704
vn -0.7070 -0.0152 0.7070
vn -0.6722 -0.3103 0.6722
vn -0.6992 -0.1489 0.6992
vn -0.5704 0.5910 0.5704
vn -0.7070 0.0152 0.7070
vn -0.6722 0.3103 0.6722
vn -0.6992 0.1489 0.6992
vn -0.8067 -0.5910 -0.0000
vn -0.9999 -0.0152 -0.0000
vn -0.9507 -0.3103 -0.0000
vn -0.9888 -0.1489 -0.0000
vn -0.8067 0.5910 -0.0000
vn -0.9999 0.0152 -0.0000
vn -0.9507 0.3103 -0.0000
vn -0.9888 0.1489 -0.0000
vn -0.5704 -0.5910 -0.5704
vn -0.7070 -0.0152 -0.7070
vn -0.6722 -0.3103 -0.6722
vn -0.6992 -0.1489 -0.6992
vn -0.5704 0.5910 -0.5704
vn -0.7070 0.0152 -0.7070
vn -0.6722 0.3103 -0.6722
vn -0.6992 0.1489 -0.6992
vn -0.0000 -0.0003 -1.0000
vn -0.0000 -0.0000 -1.0000
vn -0.0000 0.0003 -1.0000
vn 0.7071 0.0003 -0.7071
vn 0.7071 -0.0000 -0.7071
vn 0.7071 -0.0003 -0.7071
vn -0.7071 -0.0003 -0.7071
vn -0.7071 -0.0000 -0.7071
vn -0.7071 0.0003 -0.7071
vn 1.0000 0.0003 -0.0000
vn 1.0000 -0.0000 -0.0000
vn 1.0000 -0.0003 -0.0000
vn 0.7071 0.0003 0.7071
vn 0.7071 -0.0000 0.7071
vn 0.7071 -0.0003 0.7071
vn -0.0000 0.0003 1.0000
vn -0.0000 -0.0000 1.0000
vn -0.0000 -0.0003 1.0000
vn -0.7071 0.0003 0.7071
vn -0.7071 -0.0000 0.7071
vn -0.7071 -0.0003 0.7071
vn -1.0000 0.0003 -0.0000
vn -1.0000 -0.0000 -0.0000
vn -1.0000 -0.0003 -0.0000
vn -0.0000 1.0000 -0.0000
vn -0.0000 -1.0000 -0.0000
vn -0.0000 -0.0648 -0.9979
vn 0.3826 -0.0152 -0.9238
vn 0.7056 -0.0648 -0.7056
vn 0.3784 -0.1488 -0.9136
vn -0.0000 -0.2277 -0.9737
vn 0.6885 -0.2277 -0.6885
vn 0.3638 -0.3100 -0.8784
vn -0.0000 -0.4232 -0.9060
vn 0.6407 -0.4232 -0.6407
vn 0.3070 -0.5970 -0.7412
vn 0.7056 0.0648 -0.7056
vn 0.3826 0.0152 -0.9238
vn -0.0000 0.0648 -0.9979
vn 0.3784 0.1488 -0.9136
vn 0.6885 0.2277 -0.6885
vn -0.0000 0.2277 -0.9737
vn 0.3638 0.3100 -0.8784
vn 0.6407 0.4232 -0.6407
vn -0.0000 0.4232 -0.9060
vn 0.3070 0.5969 -0.7412
vn 0.9238 -0.0152 -0.3826
vn 0.9979 -0.0648 -0.0000
vn 0.9136 -0.1488 -0.3784
vn 0.9737 -0.2277 -0.0000
vn 0.8784 -0.3100 -0.3638
vn 0.9060 -0.4232 -0.0000
vn 0.7412 -0.5970 -0.3070
vn 0.9979 0.0648 -0.0000
vn 0.9238 0.0152 -0.3826
vn 0.9136 0.1488 -0.3784
vn 0.9737 0.2277 -0.0000
vn 0.8784 0.3100 -0.3638
vn 0.9060 0.4232 -0.0000
vn 0.7412 0.5970 -0.3070
vn 0.9238 -0.0152 0.3826
vn 0.7056 -0.0648 0.7056
vn 0.9136 -0.1488 0.3784
vn 0.6885 -0.2277 0.6885
vn 0.8784 -0.3100 0.3638
vn 0.6407 -0.4232 0.6407
vn 0.7412 -0.5970 0.3070
vn 0.7056 0.0648 0.7056
vn 0.9238 0.0152 0.3826
vn 0.9136 0.1488 0.3784
vn 0.6885 0.2277 0.6885
vn 0.8784 0.3100 0.3638
vn 0.6407 0.4232 0.6407
vn 0.7412 0.5970 0.3070
vn 0.3826 -0.0152 0.9238
vn -0.0000 -0.0648 0.9979
vn 0.3784 -0.1488 0.9136
vn -0.0000 -0.2277 0.9737
vn 0.3638 -0.3100 0.8784
vn -0.0000 -0.4232 0.9060
vn 0.3070 -0.5970 0.7412
vn -0.0000 0.0648 0.9979
vn 0.3826 0.0152 0.9238
vn 0.3784 0.1488 0.9136
vn -0.0000 0.2277 0.9737
vn 0.3638 0.3100 0.8784
vn -0.0000 0.4232 0.9060
vn 0.3070 0.5970 0.7412
vn -0.3826 -0.0152 0.9238
vn -0.7056 -0.0648 0.7056
vn -0.3784 -0.1488 0.9136
vn -0.6885 -0.2277 0.6885
vn -0.3638 -0.3100 0.8784
vn -0.6407 -0.4232 0.6407
vn -0.3070 -0.5970 0.7412
vn -0.7056 0.0648 0.7056
vn -0.3826 0.0152 0.9238
vn -0.3784 0.1488 0.9136
vn -0.6885 0.2277 0.6885
vn -0.3638 0.3100 0.8784
vn -0.6407 0.4232 0.6407
vn -0.3070 0.5969 0.7412
vn -0.9238 -0.0152 0.3826
vn -0.9979 -0.0648 -0.0000
vn -0.9136 -0.1488 0.3784
vn -0.9737 -0.2277 -0.0000
vn -0.8784 -0.3100 0.3638
vn -0.9060 -0.4232 -0.0000
vn -0.7412 -0.5970 0.3070
vn -0.9979 0.0648 -0.0000
vn -0.9238 0.0152 0.3826
vn -0.9136 0.1488 0.3784
vn -0.9737 0.2277 -0.0000
vn -0.8784 0.3100 0.3638
vn -0.9060 0.4232 -0.0000
vn -0.7412 0.5969 0.3070
vn -0.9238 -0.0152 -0.3826
vn -0.7056 -0.0648 -0.7056
vn -0.9136 -0.1488 -0.3784
vn -0.6885 -0.2277 -0.6885
vn -0.8784 -0.3100 -0.3638
vn -0.6407 -0.4232 -0.6407
vn -0.7412 -0.5970 -0.3070
vn -0.7056 0.0648 -0.7056
vn -0.9238 0.0152 -0.3826
vn -0.9136 0.1488 -0.3784
vn -0.6885 0.2277 -0.6885
vn -0.8784 0.3100 -0.3638
vn -0.6407 0.4232 -0.6407
vn -0.7412 0.5969 -0.3070
vn -0.3826 -0.0152 -0.9238
vn -0.3784 -0.1488 -0.9136
vn -0.3638 -0.3100 -0.8784
vn -0.3070 -0.5970 -0.7412
vn -0.3826 0.0152 -0.9238
vn -0.3784 0.1488 -0.9136
vn -0.3638 0.3100 -0.8784
vn -0.3070 0.5969 -0.7412
vn -0.0000 0.0027 -1.0000
vn 0.7071 -0.0027 -0.7071
vn -0.7071 0.0027 -0.7071
vn 1.0000 -0.0027 -0.0000
vn 0.7071 -0.0027 0.7071
vn -0.0000 -0.0027 1.0000
vn -0.7071 -0.0027 0.7071
vn -1.0000 -0.0027 -0.0000
vn -0.0000 -0.0027 -1.0000
vn 0.7071 0.0027 -0.7071
vn -0.7071 -0.0027 -0.7071
vn 1.0000 0.0027 -0.0000
vn 0.7071 0.0027 0.7071
vn -0.0000 0.0027 1.0000
vn -0.7071 0.0027 0.7071
vn -1.0000 0.0027 -0.0000
vn -0.9239 -0.0003 -0.3827
vn -0.9239 -0.0000 -0.3827
vn -0.9239 0.0003 -0.3827
vn -0.9239 -0.0003 0.3827
vn -0.9239 -0.0000 0.3827
vn -0.9239 0.0003 0.3827
vn -0.3827 -0.0003 0.9239
vn -0.3827 -0.0000 0.9239
vn -0.3827 0.0003 0.9239
vn 0.3827 -0.0003 0.9239
vn 0.3827 -0.0000 0.9239
vn 0.3827 0.0003 0.9239
vn 0.9239 -0.0003 0.3827
vn 0.9239 -0.0000 0.3827
vn 0.9239 0.0003 0.3827
vn 0.9239 -0.0003 -0.3827
vn 0.9239 -0.0000 -0.3827
vn 0.9239 0.0003 -0.3827
vn -0.3827 -0.0003 -0.9239
vn -0.3827 -0.0000 -0.9239
vn -0.3827 0.0003 -0.9239
vn 0.3827 -0.0003 -0.9239
vn 0.3827 -0.0000 -0.9239
vn 0.3827 0.0003 -0.9239
vn 0.2941 0.9094 -0.2941
vn -0.0000 0.9094 -0.4159
vn -0.2941 0.9094 -0.2941
vn -0.4159 0.9094 -0.0000
vn -0.2941 0.9094 0.2941
vn -0.0000 0.9094 0.4160
vn 0.2942 0.9094 0.2941
vn 0.4160 0.9094 -0.0000
vn -0.0000 -0.9094 -0.4160
vn 0.2941 -0.9094 -0.2941
vn 0.4160 -0.9094 -0.0000
vn 0.2941 -0.9094 0.2941
vn -0.0000 -0.9094 0.4159
vn -0.2941 -0.9094 0.2941
vn -0.4160 -0.9094 -0.0000
vn -0.2941 -0.9094 -0.2941
vn 0.3819 -0.0647 -0.9219
vn 0.3727 -0.2275 -0.8997
vn 0.3467 -0.4235 -0.8369
vn 0.3819 0.0647 -0.9219
vn 0.3727 0.2274 -0.8997
vn 0.3467 0.4235 -0.8369
vn 0.9219 -0.0647 -0.3819
vn 0.8997 -0.2275 -0.3727
vn 0.8369 -0.4235 -0.3467
vn 0.9219 0.0647 -0.3819
vn 0.8997 0.2275 -0.3727
vn 0.8369 0.4235 -0.3467
vn 0.9219 -0.0647 0.3819
vn 0.8997 -0.2275 0.3727
vn 0.8369 -0.4235 0.3467
vn 0.9219 0.0647 0.3819
vn 0.8997 0.2275 0.3727
vn 0.8369 0.4235 0.3467
vn 0.3819 -0.0647 0.9219
vn 0.3727 -0.2275 0.8997
vn 0.3467 -0.4235 0.8369
vn 0.3819 0.0647 0.9219
vn 0.3727 0.2275 0.8997
vn 0.3467 0.4235 0.8369
vn -0.3819 -0.0647 0.9219
vn -0.3727 -0.2275 0.8997
vn -0.3467 -0.4235 0.8369
vn -0.3819 0.0647 0.9219
vn -0.3727 0.2275 0.8997
vn -0.3467 0.4235 0.8369
vn -0.9219 -0.0647 0.3819
vn -0.8997 -0.2275 0.3727
vn -0.8369 -0.4235 0.3467
vn -0.9219 0.0647 0.3819
vn -0.8997 0.2275 0.3727
vn -0.8369 0.4235 0.3467
vn -0.9219 -0.0647 -0.3819
vn -0.8997 -0.2275 -0.3727
vn -0.8369 -0.4235 -0.3467
vn -0.9219 0.0647 -0.3819
vn -0.8997 0.2275 -0.3727
vn -0.8369 0.4235 -0.3467
vn -0.3819 -0.0647 -0.9219
vn -0.3727 -0.2275 -0.8997
vn -0.3467 -0.4235 -0.8369
vn -0.3819 0.0647 -0.9219
vn -0.3727 0.2275 -0.8997
vn -0.3467 0.4235 -0.8369
vn 0.3827 0.0027 -0.9239
vn -0.3827 0.0027 -0.9239
vn 0.2107 -0.8347 -0.5089
vn 0.9239 0.0027 -0.3827
vn 0.9239 0.0027 0.3827
vn 0.3827 0.0027 0.9239
vn -0.3827 0.0027 0.9239
vn -0.9239 0.0027 0.3827
vn -0.9239 0.0027 -0.3827
vn -0.9239 -0.0027 -0.3827
vn -0.9239 -0.0027 0.3827
vn -0.3827 -0.0027 0.9239
vn 0.3827 -0.0027 0.9239
vn 0.9239 -0.0027 0.3827
vn 0.9239 -0.0027 -0.3827
vn -0.3827 -0.0027 -0.9239
vn 0.3827 -0.0027 -0.9239
vn 0.2108 0.8346 -0.5089
vn -0.2108 0.8346 -0.5089
vn -0.5089 0.8346 -0.2108
vn -0.5089 0.8346 0.2108
vn -0.2108 0.8346 0.5089
vn 0.2108 0.8346 0.5089
vn 0.5089 0.8346 0.2108
vn 0.5089 0.8346 -0.2108
vn 0.5089 -0.8346 -0.2107
vn 0.5089 -0.8347 0.2108
vn 0.2108 -0.8347 0.5089
vn -0.2108 -0.8346 0.5088
vn -0.5089 -0.8347 0.2108
vn -0.5089 -0.8346 -0.2107
vn -0.2107 -0.8347 -0.5089
vt 0.718056 0.306924
vt 0.718436 0.262866
vt 0.760501 0.264754
vt 0.763806 0.291543
vt 0.718815 0.218807
vt 0.765938 0.238772
vt 0.796975 0.252774
vt 0.793397 0.266318
vt 0.795097 0.280297
vt 0.795097 0.280297
vt 0.793397 0.266318
vt 0.812933 0.267527
vt 0.813577 0.273925
vt 0.796975 0.252774
vt 0.814834 0.261297
vt 0.823412 0.265704
vt 0.822548 0.268341
vt 0.822767 0.271022
vt 0.822767 0.271022
vt 0.822548 0.268341
vt 0.826869 0.268738
vt 0.826938 0.269759
vt 0.823412 0.265704
vt 0.827210 0.267721
vt 0.828599 0.268459
vt 0.828460 0.268872
vt 0.828499 0.269286
vt 0.878746 0.861725
vt 0.828763 0.861778
vt 0.830768 0.815146
vt 0.858496 0.810990
vt 0.778781 0.861831
vt 0.803829 0.809278
vt 0.819073 0.775930
vt 0.832352 0.779456
vt 0.846011 0.777649
vt 0.846011 0.777650
vt 0.832352 0.779456
vt 0.833451 0.759469
vt 0.839431 0.758978
vt 0.819073 0.775930
vt 0.827623 0.757714
vt 0.831682 0.749622
vt 0.834141 0.750476
vt 0.836688 0.750357
vt 0.836688 0.750357
vt 0.834141 0.750476
vt 0.834518 0.746500
vt 0.835546 0.746484
vt 0.831682 0.749622
vt 0.833551 0.746105
vt 0.834314 0.744772
vt 0.834701 0.744955
vt 0.835129 0.744955
vt 0.751331 0.185424
vt 0.781969 0.216906
vt 0.783846 0.152041
vt 0.804737 0.201449
vt 0.817758 0.234290
vt 0.805535 0.241576
vt 0.805535 0.241576
vt 0.818971 0.256279
vt 0.817758 0.234290
vt 0.824658 0.253185
vt 0.827553 0.262264
vt 0.825172 0.263564
vt 0.825172 0.263564
vt 0.827867 0.266869
vt 0.827553 0.262264
vt 0.828758 0.266343
vt 0.829206 0.267885
vt 0.828850 0.268104
vt 0.945890 0.794254
vt 0.912318 0.827990
vt 0.881439 0.795778
vt 0.897643 0.773891
vt 0.857878 0.770756
vt 0.866262 0.759926
vt 0.866262 0.759926
vt 0.844774 0.756192
vt 0.848706 0.751545
vt 0.838966 0.749209
vt 0.840635 0.747258
vt 0.838966 0.749209
vt 0.836457 0.746029
vt 0.837107 0.745255
vt 0.835520 0.744785
vt 0.835796 0.744468
vt 0.832698 0.150898
vt 0.832490 0.196759
vt 0.881548 0.149755
vt 0.860514 0.201880
vt 0.845953 0.235581
vt 0.831950 0.232175
vt 0.831950 0.232175
vt 0.831074 0.252523
vt 0.845953 0.235582
vt 0.837237 0.254327
vt 0.832821 0.262867
vt 0.830238 0.262047
vt 0.830238 0.262046
vt 0.829785 0.266257
vt 0.832821 0.262867
vt 0.830797 0.266576
vt 0.830038 0.267950
vt 0.829621 0.267828
vt 0.945889 0.702642
vt 0.945890 0.748448
vt 0.903029 0.747623
vt 0.899235 0.721349
vt 0.869822 0.746676
vt 0.868145 0.733074
vt 0.868145 0.733074
vt 0.869822 0.746676
vt 0.850555 0.745664
vt 0.850048 0.739454
vt 0.841413 0.744815
vt 0.841224 0.742237
vt 0.841224 0.742237
vt 0.841413 0.744815
vt 0.837390 0.744318
vt 0.837308 0.743347
vt 0.835925 0.744086
vt 0.835887 0.743688
vt 0.918617 0.185595
vt 0.884243 0.218941
vt 0.955685 0.221436
vt 0.900895 0.243545
vt 0.865103 0.256981
vt 0.857593 0.244325
vt 0.857593 0.244325
vt 0.842185 0.258389
vt 0.845198 0.264000
vt 0.836132 0.266890
vt 0.834895 0.264575
vt 0.831632 0.267219
vt 0.836132 0.266890
vt 0.832134 0.268096
vt 0.830604 0.268556
vt 0.830394 0.268197
vt 0.884698 0.640483
vt 0.915294 0.671563
vt 0.884996 0.699476
vt 0.863995 0.683217
vt 0.861317 0.721214
vt 0.850484 0.712757
vt 0.850484 0.712757
vt 0.861317 0.721214
vt 0.847149 0.733887
vt 0.842374 0.729933
vt 0.840087 0.739897
vt 0.838179 0.738195
vt 0.838179 0.738195
vt 0.840087 0.739897
vt 0.836901 0.742466
vt 0.836215 0.741797
vt 0.835729 0.743328
vt 0.835449 0.743057
vt 0.955685 0.275993
vt 0.905443 0.273584
vt 0.955685 0.330549
vt 0.898981 0.302694
vt 0.863272 0.285873
vt 0.867094 0.271662
vt 0.845763 0.270319
vt 0.863272 0.285873
vt 0.843937 0.276472
vt 0.835484 0.272059
vt 0.836301 0.269496
vt 0.836301 0.269496
vt 0.832195 0.269102
vt 0.835484 0.272059
vt 0.831862 0.270105
vt 0.830504 0.269379
vt 0.830642 0.268968
vt 0.792455 0.624165
vt 0.838577 0.632324
vt 0.837874 0.675590
vt 0.811203 0.677294
vt 0.837193 0.709049
vt 0.823538 0.710638
vt 0.823539 0.710638
vt 0.837193 0.709049
vt 0.836434 0.728364
vt 0.830275 0.729166
vt 0.835752 0.737455
vt 0.833188 0.737687
vt 0.833188 0.737687
vt 0.835752 0.737456
vt 0.835319 0.741442
vt 0.834346 0.741447
vt 0.835094 0.742890
vt 0.834700 0.742876
vt 0.912149 0.359488
vt 0.879194 0.324318
vt 0.868613 0.388427
vt 0.852633 0.338051
vt 0.841027 0.304143
vt 0.853983 0.297198
vt 0.853983 0.297198
vt 0.839997 0.281580
vt 0.841027 0.304143
vt 0.834514 0.284759
vt 0.831600 0.275581
vt 0.833851 0.274226
vt 0.831226 0.270956
vt 0.831600 0.275581
vt 0.830356 0.271490
vt 0.829902 0.269951
vt 0.830256 0.269732
vt 0.724163 0.692855
vt 0.758309 0.658510
vt 0.788450 0.691899
vt 0.772113 0.713885
vt 0.811653 0.717538
vt 0.803274 0.728454
vt 0.803274 0.728454
vt 0.811653 0.717538
vt 0.824849 0.732093
vt 0.820911 0.736758
vt 0.830883 0.738807
vt 0.829163 0.740681
vt 0.829163 0.740681
vt 0.830883 0.738807
vt 0.833443 0.741820
vt 0.832750 0.742512
vt 0.834322 0.743006
vt 0.834034 0.743285
vt 0.819759 0.386827
vt 0.823734 0.341057
vt 0.770905 0.385228
vt 0.796832 0.334374
vt 0.812857 0.301731
vt 0.826580 0.305681
vt 0.826580 0.305681
vt 0.828191 0.285333
vt 0.812857 0.301731
vt 0.821966 0.283438
vt 0.826345 0.274973
vt 0.828971 0.275796
vt 0.828970 0.275796
vt 0.829339 0.271580
vt 0.828320 0.271266
vt 0.829070 0.269891
vt 0.829488 0.270010
vt 0.723873 0.782921
vt 0.724018 0.737888
vt 0.766660 0.740062
vt 0.770146 0.766941
vt 0.799782 0.741697
vt 0.801510 0.755329
vt 0.801511 0.755328
vt 0.799782 0.741697
vt 0.819084 0.742627
vt 0.819680 0.748701
vt 0.828304 0.743111
vt 0.828459 0.745677
vt 0.828460 0.745677
vt 0.828304 0.743111
vt 0.832384 0.743436
vt 0.832400 0.744445
vt 0.833875 0.743656
vt 0.833880 0.744072
vt 0.744481 0.346076
vt 0.776762 0.315989
vt 0.801910 0.292737
vt 0.816808 0.279453
vt 0.824139 0.273314
vt 0.824139 0.273314
vt 0.827463 0.270634
vt 0.828712 0.269645
vt 0.751327 0.822376
vt 0.783445 0.791269
vt 0.808301 0.767370
vt 0.808301 0.767370
vt 0.822751 0.753953
vt 0.829674 0.747945
vt 0.829674 0.747945
vt 0.832810 0.745381
vt 0.834024 0.744466
vt 0.351380 0.472626
vt 0.351522 0.455507
vt 0.365405 0.455507
vt 0.365405 0.472625
vt 0.353082 0.438389
vt 0.365405 0.438389
vt 0.377727 0.438389
vt 0.379287 0.455506
vt 0.379429 0.472623
vt 0.319929 0.472626
vt 0.319787 0.455507
vt 0.335655 0.455507
vt 0.335655 0.472626
vt 0.318228 0.438389
vt 0.335655 0.438389
vt 0.828499 0.269286
vt 0.828460 0.268872
vt 0.829027 0.268910
vt 0.829136 0.269080
vt 0.828599 0.268459
vt 0.829164 0.268746
vt 0.829553 0.268920
vt 0.829164 0.268746
vt 0.395331 0.455503
vt 0.395367 0.472617
vt 0.395154 0.438389
vt 0.412581 0.438389
vt 0.412581 0.455499
vt 0.412581 0.472608
vt 0.174584 0.472626
vt 0.174584 0.455507
vt 0.187084 0.455507
vt 0.187119 0.472626
vt 0.174584 0.438389
vt 0.186906 0.438389
vt 0.199229 0.438389
vt 0.200789 0.455507
vt 0.200931 0.472626
vt 0.216656 0.455507
vt 0.216656 0.472626
vt 0.216656 0.438389
vt 0.234083 0.438389
vt 0.232523 0.455507
vt 0.232382 0.472626
vt 0.246406 0.455507
vt 0.246406 0.472626
vt 0.246406 0.438389
vt 0.258728 0.438389
vt 0.260288 0.455507
vt 0.260430 0.472626
vt 0.276155 0.455507
vt 0.276155 0.472626
vt 0.276155 0.438389
vt 0.293582 0.438389
vt 0.292023 0.455507
vt 0.291881 0.472626
vt 0.305905 0.455507
vt 0.305905 0.472626
vt 0.305905 0.438389
vt 0.293582 0.780755
vt 0.292023 0.763637
vt 0.305905 0.763637
vt 0.305905 0.780755
vt 0.291881 0.746519
vt 0.305905 0.746519
vt 0.319929 0.746519
vt 0.319788 0.763637
vt 0.318228 0.780755
vt 0.291881 0.746519
vt 0.291881 0.729400
vt 0.305905 0.729400
vt 0.305905 0.746519
vt 0.291881 0.712282
vt 0.305905 0.712282
vt 0.319929 0.712282
vt 0.319929 0.729400
vt 0.319929 0.746519
vt 0.291881 0.695164
vt 0.305905 0.695164
vt 0.291881 0.678045
vt 0.305905 0.678045
vt 0.319929 0.678045
vt 0.319929 0.695164
vt 0.291881 0.660927
vt 0.305905 0.660927
vt 0.291881 0.643809
vt 0.305905 0.643809
vt 0.319929 0.643809
vt 0.319929 0.660927
vt 0.291881 0.626691
vt 0.305905 0.626690
vt 0.291881 0.609572
vt 0.305905 0.609572
vt 0.319929 0.609572
vt 0.319929 0.626691
vt 0.291881 0.592454
vt 0.305905 0.592454
vt 0.291881 0.575335
vt 0.305905 0.575336
vt 0.319929 0.575336
vt 0.319929 0.592454
vt 0.291881 0.558217
vt 0.305905 0.558217
vt 0.291881 0.541099
vt 0.305905 0.541099
vt 0.319929 0.541099
vt 0.319929 0.558217
vt 0.291881 0.523980
vt 0.305905 0.523981
vt 0.291881 0.506862
vt 0.305905 0.506862
vt 0.319929 0.506862
vt 0.319929 0.523980
vt 0.291881 0.489744
vt 0.305905 0.489744
vt 0.291881 0.472626
vt 0.319929 0.472626
vt 0.319929 0.489744
vt 0.258728 0.780755
vt 0.260288 0.763637
vt 0.276155 0.763637
vt 0.276155 0.780755
vt 0.260430 0.746519
vt 0.276155 0.746519
vt 0.260430 0.746519
vt 0.260430 0.729400
vt 0.276155 0.729400
vt 0.276155 0.746519
vt 0.260430 0.712282
vt 0.276155 0.712282
vt 0.260430 0.695164
vt 0.276155 0.695164
vt 0.260430 0.678045
vt 0.276155 0.678045
vt 0.260430 0.660927
vt 0.276155 0.660927
vt 0.260430 0.643809
vt 0.276155 0.643809
vt 0.260430 0.626690
vt 0.276155 0.626690
vt 0.260430 0.609572
vt 0.276155 0.609572
vt 0.260430 0.592454
vt 0.276155 0.592454
vt 0.260430 0.575335
vt 0.276155 0.575335
vt 0.260430 0.558217
vt 0.276155 0.558217
vt 0.260430 0.541099
vt 0.276155 0.541099
vt 0.260430 0.523980
vt 0.276155 0.523981
vt 0.260430 0.506862
vt 0.276155 0.506862
vt 0.260430 0.489744
vt 0.276155 0.489744
vt 0.260430 0.472626
vt 0.276155 0.472626
vt 0.234083 0.780755
vt 0.232523 0.763637
vt 0.246406 0.763637
vt 0.246406 0.780755
vt 0.232382 0.746519
vt 0.246406 0.746519
vt 0.232382 0.746519
vt 0.232382 0.729400
vt 0.246406 0.729400
vt 0.246406 0.746519
vt 0.232382 0.712282
vt 0.246406 0.712282
vt 0.232382 0.695164
vt 0.246406 0.695164
vt 0.232382 0.678045
vt 0.246406 0.678045
vt 0.232382 0.660927
vt 0.246406 0.660927
vt 0.232382 0.643809
vt 0.246406 0.643809
vt 0.232382 0.626690
vt 0.246406 0.626690
vt 0.232382 0.609572
vt 0.246406 0.609572
vt 0.232382 0.592454
vt 0.246406 0.592454
vt 0.232382 0.575335
vt 0.246406 0.575335
vt 0.232382 0.558217
vt 0.246406 0.558217
vt 0.232382 0.541099
vt 0.246406 0.541099
vt 0.232382 0.523980
vt 0.246406 0.523981
vt 0.232382 0.506862
vt 0.246406 0.506862
vt 0.232382 0.489744
vt 0.246406 0.489744
vt 0.232382 0.472626
vt 0.246406 0.472626
vt 0.199229 0.780755
vt 0.200789 0.763637
vt 0.216656 0.763637
vt 0.216656 0.780755
vt 0.200931 0.746519
vt 0.216656 0.746519
vt 0.200930 0.746519
vt 0.200930 0.729400
vt 0.216656 0.729400
vt 0.216656 0.746519
vt 0.200930 0.712282
vt 0.216656 0.712282
vt 0.200930 0.695164
vt 0.216656 0.695164
vt 0.200930 0.678045
vt 0.216656 0.678045
vt 0.200930 0.660927
vt 0.216656 0.660927
vt 0.200930 0.643809
vt 0.216656 0.643809
vt 0.200930 0.626690
vt 0.216656 0.626690
vt 0.200930 0.609572
vt 0.216656 0.609572
vt 0.200930 0.592454
vt 0.216656 0.592454
vt 0.200930 0.575335
vt 0.216656 0.575335
vt 0.200930 0.558217
vt 0.216656 0.558217
vt 0.200930 0.541099
vt 0.216656 0.541099
vt 0.200930 0.523980
vt 0.216656 0.523981
vt 0.200930 0.506862
vt 0.216656 0.506862
vt 0.200930 0.489744
vt 0.216656 0.489744
vt 0.200930 0.472626
vt 0.216656 0.472626
vt 0.174584 0.780755
vt 0.174584 0.763637
vt 0.187084 0.763637
vt 0.186906 0.780755
vt 0.174584 0.746519
vt 0.187119 0.746519
vt 0.174584 0.729400
vt 0.187119 0.729400
vt 0.174584 0.712282
vt 0.187119 0.712282
vt 0.200931 0.712282
vt 0.200931 0.729400
vt 0.174584 0.695164
vt 0.187119 0.695164
vt 0.174584 0.678045
vt 0.187119 0.678045
vt 0.200931 0.678045
vt 0.200931 0.695164
vt 0.174584 0.660927
vt 0.187119 0.660927
vt 0.174584 0.643809
vt 0.187119 0.643809
vt 0.200931 0.643809
vt 0.200931 0.660927
vt 0.174584 0.626690
vt 0.187119 0.626690
vt 0.174584 0.609572
vt 0.187119 0.609572
vt 0.200931 0.609572
vt 0.200931 0.626690
vt 0.174584 0.592454
vt 0.187119 0.592454
vt 0.174584 0.575335
vt 0.187119 0.575335
vt 0.200931 0.575336
vt 0.200931 0.592454
vt 0.174584 0.558217
vt 0.187119 0.558217
vt 0.174584 0.541099
vt 0.187119 0.541099
vt 0.200931 0.541099
vt 0.200931 0.558217
vt 0.174584 0.523981
vt 0.187119 0.523980
vt 0.174584 0.506862
vt 0.187119 0.506862
vt 0.200931 0.506862
vt 0.200931 0.523980
vt 0.174584 0.489744
vt 0.187119 0.489744
vt 0.200931 0.489744
vt 0.377727 0.780583
vt 0.377727 0.763473
vt 0.395154 0.763473
vt 0.395154 0.780583
vt 0.377727 0.746363
vt 0.395154 0.746363
vt 0.412581 0.746363
vt 0.412581 0.763473
vt 0.412581 0.780583
vt 0.377727 0.729254
vt 0.395154 0.729254
vt 0.377727 0.712144
vt 0.395154 0.712144
vt 0.412581 0.712144
vt 0.412581 0.729254
vt 0.377727 0.695034
vt 0.395154 0.695034
vt 0.377727 0.677924
vt 0.395154 0.677925
vt 0.412581 0.677924
vt 0.412581 0.695034
vt 0.377727 0.660815
vt 0.395154 0.660815
vt 0.377727 0.643705
vt 0.395154 0.643711
vt 0.412581 0.643705
vt 0.412581 0.660815
vt 0.377727 0.626639
vt 0.395154 0.626617
vt 0.377727 0.609572
vt 0.395190 0.609521
vt 0.412581 0.609486
vt 0.412581 0.626595
vt 0.379287 0.592442
vt 0.395332 0.592413
vt 0.379429 0.575324
vt 0.395367 0.575299
vt 0.412581 0.575266
vt 0.412581 0.592376
vt 0.379429 0.558207
vt 0.395367 0.558186
vt 0.379429 0.541090
vt 0.395367 0.541072
vt 0.412581 0.541047
vt 0.412581 0.558157
vt 0.379429 0.523973
vt 0.395367 0.523958
vt 0.379429 0.506856
vt 0.395367 0.506844
vt 0.412581 0.506828
vt 0.412581 0.523937
vt 0.379429 0.489740
vt 0.395367 0.489730
vt 0.412581 0.489718
vt 0.335655 0.763637
vt 0.335655 0.780755
vt 0.335655 0.746519
vt 0.351380 0.746519
vt 0.351522 0.763637
vt 0.353082 0.780755
vt 0.335655 0.729400
vt 0.335655 0.746519
vt 0.335655 0.712282
vt 0.351380 0.712282
vt 0.351380 0.729400
vt 0.351380 0.746519
vt 0.335655 0.695164
vt 0.335655 0.678045
vt 0.351380 0.678045
vt 0.351380 0.695164
vt 0.335655 0.660927
vt 0.335655 0.643809
vt 0.351380 0.643809
vt 0.351380 0.660927
vt 0.335655 0.626690
vt 0.335655 0.609572
vt 0.351380 0.609572
vt 0.351380 0.626691
vt 0.335655 0.592454
vt 0.335655 0.575336
vt 0.351380 0.575336
vt 0.351380 0.592454
vt 0.335655 0.558217
vt 0.335655 0.541099
vt 0.351380 0.541099
vt 0.351380 0.558217
vt 0.335655 0.523981
vt 0.335655 0.506862
vt 0.351380 0.506862
vt 0.351380 0.523980
vt 0.335655 0.489744
vt 0.335655 0.472626
vt 0.351380 0.472626
vt 0.351380 0.489744
vt 0.365227 0.763637
vt 0.365405 0.780755
vt 0.365192 0.746519
vt 0.377727 0.746519
vt 0.377727 0.763637
vt 0.377727 0.780755
vt 0.351380 0.729400
vt 0.365192 0.729400
vt 0.351380 0.712282
vt 0.365192 0.712282
vt 0.377727 0.712282
vt 0.377727 0.729400
vt 0.351380 0.695164
vt 0.365192 0.695164
vt 0.351380 0.678045
vt 0.365192 0.678045
vt 0.377727 0.678045
vt 0.377727 0.695164
vt 0.351380 0.660927
vt 0.365192 0.660927
vt 0.351380 0.643809
vt 0.365192 0.643809
vt 0.377727 0.643809
vt 0.377727 0.660927
vt 0.365192 0.626691
vt 0.351380 0.609572
vt 0.365227 0.609572
vt 0.377727 0.626691
vt 0.365369 0.592453
vt 0.351380 0.575336
vt 0.365405 0.575334
vt 0.365405 0.558216
vt 0.365405 0.575334
vt 0.365405 0.541098
vt 0.379429 0.541090
vt 0.379429 0.558207
vt 0.379429 0.575324
vt 0.365405 0.523980
vt 0.365405 0.506861
vt 0.379429 0.506856
vt 0.379429 0.523973
vt 0.365405 0.489743
vt 0.365405 0.472625
vt 0.379429 0.472623
vt 0.379429 0.489740
vt 0.835129 0.744955
vt 0.834701 0.744955
vt 0.834786 0.744391
vt 0.834975 0.744311
vt 0.834314 0.744772
vt 0.834652 0.744231
vt 0.834701 0.744955
vt 0.834896 0.743885
vt 0.834975 0.744311
vt 0.834652 0.744231
vt 0.834024 0.744466
vt 0.834472 0.744154
vt 0.834653 0.744231
vt 0.833880 0.744072
vt 0.834487 0.743950
vt 0.834024 0.744466
vt 0.834487 0.743950
vt 0.833880 0.744072
vt 0.833875 0.743656
vt 0.834403 0.743764
vt 0.834034 0.743285
vt 0.834549 0.743634
vt 0.833875 0.743656
vt 0.834035 0.743285
vt 0.834620 0.743453
vt 0.834549 0.743634
vt 0.834700 0.742876
vt 0.834820 0.743474
vt 0.834322 0.743006
vt 0.835094 0.742890
vt 0.834995 0.743403
vt 0.835449 0.743057
vt 0.835123 0.743551
vt 0.835094 0.742890
vt 0.835123 0.743551
vt 0.835449 0.743057
vt 0.835729 0.743328
vt 0.835306 0.743617
vt 0.835123 0.743551
vt 0.835887 0.743688
vt 0.835305 0.743808
vt 0.835729 0.743328
vt 0.835305 0.743808
vt 0.835887 0.743688
vt 0.835925 0.744086
vt 0.835400 0.743988
vt 0.835796 0.744468
vt 0.835258 0.744127
vt 0.835925 0.744086
vt 0.835258 0.744127
vt 0.835796 0.744468
vt 0.835520 0.744785
vt 0.835188 0.744323
vt 0.835258 0.744127
vt 0.835129 0.744955
vt 0.834975 0.744311
vt 0.835519 0.744785
vt 0.834975 0.744311
vt 0.828850 0.268104
vt 0.829204 0.268540
vt 0.829164 0.268746
vt 0.829206 0.267885
vt 0.829401 0.268513
vt 0.828850 0.268104
vt 0.829401 0.268513
vt 0.829621 0.267828
vt 0.829572 0.268393
vt 0.829401 0.268513
vt 0.829737 0.268520
vt 0.829737 0.268520
vt 0.830038 0.267950
vt 0.830394 0.268197
vt 0.829950 0.268557
vt 0.829737 0.268520
vt 0.829970 0.268760
vt 0.830394 0.268197
vt 0.829737 0.268520
vt 0.830604 0.268556
vt 0.830642 0.268968
vt 0.830078 0.268930
vt 0.830504 0.269379
vt 0.829942 0.269093
vt 0.829971 0.268760
vt 0.829942 0.269093
vt 0.830256 0.269732
vt 0.829903 0.269298
vt 0.829942 0.269093
vt 0.829902 0.269951
vt 0.829706 0.269325
vt 0.829942 0.269093
vt 0.829706 0.269325
vt 0.829902 0.269950
vt 0.829536 0.269445
vt 0.829070 0.269891
vt 0.829370 0.269320
vt 0.829488 0.270010
vt 0.829706 0.269325
vt 0.829070 0.269891
vt 0.828712 0.269645
vt 0.829157 0.269284
vt 0.829370 0.269320
vt 0.828499 0.269286
vt 0.828712 0.269645
vt 0.829370 0.269320
vt 0.829136 0.269080
s 1
usemtl Material.001
f 2/1/2 140/2/92 419/3/259 139/4/91
f 140/2/92 10/5/10 141/6/93 419/3/259
f 419/3/259 141/6/93 12/7/12 142/8/94
f 139/4/91 419/3/259 142/8/94 4/9/4
f 4/10/4 142/11/94 420/12/260 143/13/95
f 142/11/94 12/14/12 144/15/96 420/12/260
f 420/12/260 144/15/96 11/16/11 145/17/97
f 143/13/95 420/12/260 145/17/97 3/18/3
f 3/19/3 145/20/97 421/21/261 146/22/98
f 145/20/97 11/23/11 147/24/99 421/21/261
f 421/21/261 147/24/99 9/25/9 148/26/100
f 146/22/98 421/21/261 148/26/100 1/27/1
f 14/28/14 150/29/102 422/30/262 149/31/101
f 150/29/102 6/32/6 151/33/103 422/30/262
f 422/30/262 151/33/103 8/34/8 152/35/104
f 149/31/101 422/30/262 152/35/104 16/36/16
f 16/37/16 152/38/104 423/39/263 153/40/105
f 152/38/104 8/41/8 154/42/106 423/39/263
f 423/39/263 154/42/106 7/43/7 155/44/107
f 153/40/105 423/39/263 155/44/107 15/45/15
f 15/46/15 155/47/107 424/48/264 156/49/108
f 155/47/107 7/50/7 157/51/109 424/48/264
f 424/48/264 157/51/109 5/52/5 158/53/110
f 156/49/108 424/48/264 158/53/110 13/54/13
f 10/5/10 159/55/111 425/56/265 141/6/93
f 159/55/111 18/57/18 160/58/112 425/56/265
f 425/56/265 160/58/112 20/59/20 161/60/113
f 141/6/93 425/56/265 161/60/113 12/7/12
f 12/14/12 161/61/113 426/62/266 144/15/96
f 161/61/113 20/63/20 162/64/114 426/62/266
f 426/62/266 162/64/114 19/65/19 163/66/115
f 144/15/96 426/62/266 163/66/115 11/16/11
f 11/23/11 163/67/115 427/68/267 147/24/99
f 163/67/115 19/69/19 164/70/116 427/68/267
f 427/68/267 164/70/116 17/71/17 165/72/117
f 147/24/99 427/68/267 165/72/117 9/25/9
f 22/73/22 167/74/119 428/75/268 166/76/118
f 167/74/119 14/28/14 149/31/101 428/75/268
f 428/75/268 149/31/101 16/36/16 168/77/120
f 166/76/118 428/75/268 168/77/120 24/78/24
f 24/79/24 168/77/120 429/80/269 169/81/121
f 168/77/120 16/37/16 153/40/105 429/80/269
f 429/80/269 153/40/105 15/45/15 170/82/122
f 169/81/121 429/80/269 170/82/122 23/83/23
f 23/83/23 170/84/122 430/85/270 171/86/123
f 170/84/122 15/46/15 156/49/108 430/85/270
f 430/85/270 156/49/108 13/54/13 172/87/124
f 171/86/123 430/85/270 172/87/124 21/88/21
f 18/57/18 173/89/125 431/90/271 160/58/112
f 173/89/125 26/91/26 174/92/126 431/90/271
f 431/90/271 174/92/126 28/93/28 175/94/127
f 160/58/112 431/90/271 175/94/127 20/59/20
f 20/63/20 175/95/127 432/96/272 162/64/114
f 175/95/127 28/97/28 176/98/128 432/96/272
f 432/96/272 176/98/128 27/99/27 177/100/129
f 162/64/114 432/96/272 177/100/129 19/65/19
f 19/69/19 177/101/129 433/102/273 164/70/116
f 177/101/129 27/103/27 178/104/130 433/102/273
f 433/102/273 178/104/130 25/105/25 179/106/131
f 164/70/116 433/102/273 179/106/131 17/71/17
f 30/107/30 181/108/133 434/109/274 180/110/132
f 181/108/133 22/73/22 166/76/118 434/109/274
f 434/109/274 166/76/118 24/78/24 182/111/134
f 180/110/132 434/109/274 182/111/134 32/112/32
f 32/113/32 182/114/134 435/115/275 183/116/135
f 182/114/134 24/79/24 169/81/121 435/115/275
f 435/115/275 169/81/121 23/83/23 184/117/136
f 183/116/135 435/115/275 184/117/136 31/118/31
f 31/119/31 184/120/136 436/121/276 185/122/137
f 184/120/136 23/83/23 171/86/123 436/121/276
f 436/121/276 171/86/123 21/88/21 186/123/138
f 185/122/137 436/121/276 186/123/138 29/124/29
f 26/91/26 187/125/139 437/126/277 174/92/126
f 187/125/139 34/127/34 188/128/140 437/126/277
f 437/126/277 188/128/140 36/129/36 189/130/141
f 174/92/126 437/126/277 189/130/141 28/93/28
f 28/97/28 189/131/141 438/132/278 176/98/128
f 189/131/141 36/129/36 190/133/142 438/132/278
f 438/132/278 190/133/142 35/134/35 191/135/143
f 176/98/128 438/132/278 191/135/143 27/99/27
f 27/103/27 191/135/143 439/136/279 178/104/130
f 191/135/143 35/137/35 192/138/144 439/136/279
f 439/136/279 192/138/144 33/139/33 193/140/145
f 178/104/130 439/136/279 193/140/145 25/105/25
f 38/141/38 195/142/147 440/143/280 194/144/146
f 195/142/147 30/107/30 180/110/132 440/143/280
f 440/143/280 180/110/132 32/112/32 196/145/148
f 194/144/146 440/143/280 196/145/148 40/146/40
f 40/147/40 196/148/148 441/149/281 197/150/149
f 196/148/148 32/113/32 183/116/135 441/149/281
f 441/149/281 183/116/135 31/118/31 198/151/150
f 197/150/149 441/149/281 198/151/150 39/152/39
f 39/153/39 198/154/150 442/155/282 199/156/151
f 198/154/150 31/119/31 185/122/137 442/155/282
f 442/155/282 185/122/137 29/124/29 200/157/152
f 199/156/151 442/155/282 200/157/152 37/158/37
f 34/127/34 201/159/153 443/160/283 188/128/140
f 201/159/153 42/161/42 202/162/154 443/160/283
f 443/160/283 202/162/154 44/163/44 203/164/155
f 188/128/140 443/160/283 203/164/155 36/129/36
f 36/129/36 203/164/155 444/165/284 190/133/142
f 203/164/155 44/166/44 204/167/156 444/165/284
f 444/165/284 204/167/156 43/168/43 205/169/157
f 190/133/142 444/165/284 205/169/157 35/134/35
f 35/137/35 205/170/157 445/171/285 192/138/144
f 205/170/157 43/172/43 206/173/158 445/171/285
f 445/171/285 206/173/158 41/174/41 207/175/159
f 192/138/144 445/171/285 207/175/159 33/139/33
f 46/176/46 209/177/161 446/178/286 208/179/160
f 209/177/161 38/141/38 194/144/146 446/178/286
f 446/178/286 194/144/146 40/146/40 210/180/162
f 208/179/160 446/178/286 210/180/162 48/181/48
f 48/182/48 210/183/162 447/184/287 211/185/163
f 210/183/162 40/147/40 197/150/149 447/184/287
f 447/184/287 197/150/149 39/152/39 212/186/164
f 211/185/163 447/184/287 212/186/164 47/187/47
f 47/188/47 212/189/164 448/190/288 213/191/165
f 212/189/164 39/153/39 199/156/151 448/190/288
f 448/190/288 199/156/151 37/158/37 214/192/166
f 213/191/165 448/190/288 214/192/166 45/193/45
f 42/161/42 215/194/167 449/195/289 202/162/154
f 215/194/167 50/196/50 216/197/168 449/195/289
f 449/195/289 216/197/168 52/198/52 217/199/169
f 202/162/154 449/195/289 217/199/169 44/163/44
f 44/166/44 217/200/169 450/201/290 204/167/156
f 217/200/169 52/202/52 218/203/170 450/201/290
f 450/201/290 218/203/170 51/204/51 219/205/171
f 204/167/156 450/201/290 219/205/171 43/168/43
f 43/172/43 219/205/171 451/206/291 206/173/158
f 219/205/171 51/207/51 220/208/172 451/206/291
f 451/206/291 220/208/172 49/209/49 221/210/173
f 206/173/158 451/206/291 221/210/173 41/174/41
f 54/211/54 223/212/175 452/213/292 222/214/174
f 223/212/175 46/176/46 208/179/160 452/213/292
f 452/213/292 208/179/160 48/181/48 224/215/176
f 222/214/174 452/213/292 224/215/176 56/216/56
f 56/217/56 224/218/176 453/219/293 225/220/177
f 224/218/176 48/182/48 211/185/163 453/219/293
f 453/219/293 211/185/163 47/187/47 226/221/178
f 225/220/177 453/219/293 226/221/178 55/222/55
f 55/223/55 226/224/178 454/225/294 227/226/179
f 226/224/178 47/188/47 213/191/165 454/225/294
f 454/225/294 213/191/165 45/193/45 228/227/180
f 227/226/179 454/225/294 228/227/180 53/228/53
f 50/196/50 229/229/181 455/230/295 216/197/168
f 229/229/181 58/231/58 230/232/182 455/230/295
f 455/230/295 230/232/182 60/233/60 231/234/183
f 216/197/168 455/230/295 231/234/183 52/198/52
f 52/202/52 231/235/183 456/236/296 218/203/170
f 231/235/183 60/237/60 232/238/184 456/236/296
f 456/236/296 232/238/184 59/239/59 233/240/185
f 218/203/170 456/236/296 233/240/185 51/204/51
f 51/207/51 233/241/185 457/242/297 220/208/172
f 233/241/185 59/239/59 234/243/186 457/242/297
f 457/242/297 234/243/186 57/244/57 235/245/187
f 220/208/172 457/242/297 235/245/187 49/209/49
f 62/246/62 237/247/189 458/248/298 236/249/188
f 237/247/189 54/211/54 222/214/174 458/248/298
f 458/248/298 222/214/174 56/216/56 238/250/190
f 236/249/188 458/248/298 238/250/190 64/251/64
f 64/252/64 238/253/190 459/254/299 239/255/191
f 238/253/190 56/217/56 225/220/177 459/254/299
f 459/254/299 225/220/177 55/222/55 240/256/192
f 239/255/191 459/254/299 240/256/192 63/257/63
f 63/258/63 240/259/192 460/260/300 241/261/193
f 240/259/192 55/223/55 227/226/179 460/260/300
f 460/260/300 227/226/179 53/228/53 242/262/194
f 241/261/193 460/260/300 242/262/194 61/263/61
f 58/231/58 243/264/195 461/265/301 230/232/182
f 243/264/195 2/1/2 139/4/91 461/265/301
f 461/265/301 139/4/91 4/9/4 244/266/196
f 230/232/182 461/265/301 244/266/196 60/233/60
f 60/237/60 244/266/196 462/267/302 232/238/184
f 244/266/196 4/10/4 143/13/95 462/267/302
f 462/267/302 143/13/95 3/18/3 245/268/197
f 232/238/184 462/267/302 245/268/197 59/239/59
f 59/239/59 245/269/197 463/270/303 234/243/186
f 245/269/197 3/19/3 146/22/98 463/270/303
f 463/270/303 146/22/98 1/27/1 246/271/198
f 234/243/186 463/270/303 246/271/198 57/244/57
f 6/32/6 247/272/199 464/273/304 151/33/103
f 247/272/199 62/246/62 236/249/188 464/273/304
f 464/273/304 236/249/188 64/251/64 248/274/200
f 151/33/103 464/273/304 248/274/200 8/34/8
f 8/41/8 248/275/200 465/276/305 154/42/106
f 248/275/200 64/252/64 239/255/191 465/276/305
f 465/276/305 239/255/191 63/257/63 249/277/201
f 154/42/106 465/276/305 249/277/201 7/43/7
f 7/50/7 249/278/201 466/279/306 157/51/109
f 249/278/201 63/258/63 241/261/193 466/279/306
f 466/279/306 241/261/193 61/263/61 250/280/202
f 157/51/109 466/279/306 250/280/202 5/52/5
f 73/281/67 251/282/203 467/283/307 402/284/242
f 251/282/203 6/285/6 150/286/102 467/283/307
f 467/283/307 150/286/102 14/287/14 268/288/212
f 402/284/242 467/283/307 268/288/212 74/289/68
f 91/290/73 253/291/205 468/292/308 393/293/239
f 253/291/205 62/294/62 247/295/199 468/292/308
f 468/292/308 247/295/199 6/285/6 251/282/203
f 393/293/239 468/292/308 251/282/203 73/281/67
f 1/296/1 148/297/100 469/298/309 411/299/251
f 9/300/9 412/301/252 469/298/309 148/297/100
f 138/302/90 411/299/251 469/298/309 412/303/252
f 74/289/68 268/288/212 470/304/310 384/305/236
f 268/288/212 14/287/14 167/306/119 470/304/310
f 470/304/310 167/306/119 22/307/22 286/308/214
f 384/305/236 470/304/310 286/308/214 92/309/74
f 92/310/74 286/311/214 471/312/311 375/313/233
f 286/311/214 22/314/22 181/315/133 471/312/311
f 471/312/311 181/315/133 30/316/30 295/317/215
f 375/313/233 471/312/311 295/317/215 101/318/77
f 101/318/77 295/317/215 472/319/312 366/320/230
f 295/317/215 30/316/30 195/321/147 472/319/312
f 472/319/312 195/321/147 38/322/38 304/323/216
f 366/320/230 472/319/312 304/323/216 110/324/80
f 110/324/80 304/323/216 473/325/313 357/326/227
f 304/323/216 38/322/38 209/327/161 473/325/313
f 473/325/313 209/327/161 46/328/46 313/329/217
f 357/326/227 473/325/313 313/329/217 119/330/83
f 119/330/83 313/329/217 474/331/314 348/332/224
f 313/329/217 46/328/46 223/333/175 474/331/314
f 474/331/314 223/333/175 54/334/54 322/335/218
f 348/332/224 474/331/314 322/335/218 128/336/86
f 128/336/86 322/335/218 475/337/315 339/338/221
f 322/335/218 54/334/54 237/339/189 475/337/315
f 475/337/315 237/339/189 62/294/62 253/291/205
f 339/338/221 475/337/315 253/291/205 91/290/73
f 50/340/50 258/341/210 476/342/316 229/343/181
f 258/341/210 136/344/88 331/345/219 476/342/316
f 476/342/316 331/345/219 83/346/71 277/347/213
f 229/343/181 476/342/316 277/347/213 58/348/58
f 136/349/88 330/350/87 477/351/220 331/352/219
f 330/350/87 135/353/87 332/354/220 477/351/220
f 477/351/220 332/354/220 84/355/72 278/356/72
f 331/352/219 477/351/220 278/356/72 83/357/71
f 135/353/87 329/358/87 478/359/220 332/354/220
f 329/358/87 134/360/87 333/361/220 478/359/220
f 478/359/220 333/361/220 85/362/72 279/363/72
f 332/354/220 478/359/220 279/363/72 84/355/72
f 134/360/87 328/364/87 479/365/220 333/361/220
f 328/364/87 133/366/87 334/367/220 479/365/220
f 479/365/220 334/367/220 86/368/72 280/369/72
f 333/361/220 479/365/220 280/369/72 85/362/72
f 133/366/87 327/370/87 480/371/220 334/367/220
f 327/370/87 132/372/87 335/373/220 480/371/220
f 480/371/220 335/373/220 87/374/72 281/375/72
f 334/367/220 480/371/220 281/375/72 86/368/72
f 132/372/87 326/376/87 481/377/220 335/373/220
f 326/376/87 131/378/87 336/379/220 481/377/220
f 481/377/220 336/379/220 88/380/72 282/381/72
f 335/373/220 481/377/220 282/381/72 87/374/72
f 131/378/87 325/382/87 482/383/220 336/379/220
f 325/382/87 130/384/87 337/385/220 482/383/220
f 482/383/220 337/385/220 89/386/72 283/387/72
f 336/379/220 482/383/220 283/387/72 88/380/72
f 130/384/87 324/388/87 483/389/220 337/385/220
f 324/388/87 129/390/87 338/391/220 483/389/220
f 483/389/220 338/391/220 90/392/72 284/393/72
f 337/385/220 483/389/220 284/393/72 89/386/72
f 129/390/87 323/394/87 484/395/220 338/391/220
f 323/394/87 128/396/86 339/338/221 484/395/220
f 484/395/220 339/338/221 91/397/73 285/398/72
f 338/391/220 484/395/220 285/398/72 90/392/72
f 42/399/42 257/400/209 485/401/317 215/402/167
f 257/400/209 127/403/85 340/404/222 485/401/317
f 485/401/317 340/404/222 136/344/88 258/341/210
f 215/402/167 485/401/317 258/341/210 50/340/50
f 127/405/85 321/406/84 486/407/223 340/408/222
f 321/406/84 126/409/84 341/410/223 486/407/223
f 486/407/223 341/410/223 135/353/87 330/350/87
f 340/408/222 486/407/223 330/350/87 136/349/88
f 126/409/84 320/411/84 487/412/223 341/410/223
f 320/411/84 125/413/84 342/414/223 487/412/223
f 487/412/223 342/414/223 134/360/87 329/358/87
f 341/410/223 487/412/223 329/358/87 135/353/87
f 125/413/84 319/415/84 488/416/223 342/414/223
f 319/415/84 124/417/84 343/418/223 488/416/223
f 488/416/223 343/418/223 133/366/87 328/364/87
f 342/414/223 488/416/223 328/364/87 134/360/87
f 124/417/84 318/419/84 489/420/223 343/418/223
f 318/419/84 123/421/84 344/422/223 489/420/223
f 489/420/223 344/422/223 132/372/87 327/370/87
f 343/418/223 489/420/223 327/370/87 133/366/87
f 123/421/84 317/423/84 490/424/223 344/422/223
f 317/423/84 122/425/84 345/426/223 490/424/223
f 490/424/223 345/426/223 131/378/87 326/376/87
f 344/422/223 490/424/223 326/376/87 132/372/87
f 122/425/84 316/427/84 491/428/223 345/426/223
f 316/427/84 121/429/84 346/430/223 491/428/223
f 491/428/223 346/430/223 130/384/87 325/382/87
f 345/426/223 491/428/223 325/382/87 131/378/87
f 121/429/84 315/431/84 492/432/223 346/430/223
f 315/431/84 120/433/84 347/434/223 492/432/223
f 492/432/223 347/434/223 129/390/87 324/388/87
f 346/430/223 492/432/223 324/388/87 130/384/87
f 120/433/84 314/435/84 493/436/223 347/434/223
f 314/435/84 119/437/83 348/438/224 493/436/223
f 493/436/223 348/438/224 128/396/86 323/394/87
f 347/434/223 493/436/223 323/394/87 129/390/87
f 34/439/34 256/440/208 494/441/318 201/442/153
f 256/440/208 118/443/82 349/444/225 494/441/318
f 494/441/318 349/444/225 127/403/85 257/400/209
f 201/442/153 494/441/318 257/400/209 42/399/42
f 118/445/82 312/446/81 495/447/226 349/448/225
f 312/446/81 117/449/81 350/450/226 495/447/226
f 495/447/226 350/450/226 126/409/84 321/406/84
f 349/448/225 495/447/226 321/406/84 127/405/85
f 117/449/81 311/451/81 496/452/226 350/450/226
f 311/451/81 116/453/81 351/454/226 496/452/226
f 496/452/226 351/454/226 125/413/84 320/411/84
f 350/450/226 496/452/226 320/411/84 126/409/84
f 116/453/81 310/455/81 497/456/226 351/454/226
f 310/455/81 115/457/81 352/458/226 497/456/226
f 497/456/226 352/458/226 124/417/84 319/415/84
f 351/454/226 497/456/226 319/415/84 125/413/84
f 115/457/81 309/459/81 498/460/226 352/458/226
f 309/459/81 114/461/81 353/462/226 498/460/226
f 498/460/226 353/462/226 123/421/84 318/419/84
f 352/458/226 498/460/226 318/419/84 124/417/84
f 114/461/81 308/463/81 499/464/226 353/462/226
f 308/463/81 113/465/81 354/466/226 499/464/226
f 499/464/226 354/466/226 122/425/84 317/423/84
f 353/462/226 499/464/226 317/423/84 123/421/84
f 113/465/81 307/467/81 500/468/226 354/466/226
f 307/467/81 112/469/81 355/470/226 500/468/226
f 500/468/226 355/470/226 121/429/84 316/427/84
f 354/466/226 500/468/226 316/427/84 122/425/84
f 112/469/81 306/471/81 501/472/226 355/470/226
f 306/471/81 111/473/81 356/474/226 501/472/226
f 501/472/226 356/474/226 120/433/84 315/431/84
f 355/470/226 501/472/226 315/431/84 121/429/84
f 111/473/81 305/475/81 502/476/226 356/474/226
f 305/475/81 110/477/80 357/478/227 502/476/226
f 502/476/226 357/478/227 119/437/83 314/435/84
f 356/474/226 502/476/226 314/435/84 120/433/84
f 26/479/26 255/480/207 503/481/319 187/482/139
f 255/480/207 109/483/79 358/484/228 503/481/319
f 503/481/319 358/484/228 118/443/82 256/440/208
f 187/482/139 503/481/319 256/440/208 34/439/34
f 109/485/79 303/486/78 504/487/229 358/488/228
f 303/486/78 108/489/78 359/490/229 504/487/229
f 504/487/229 359/490/229 117/449/81 312/446/81
f 358/488/228 504/487/229 312/446/81 118/445/82
f 108/489/78 302/491/78 505/492/229 359/490/229
f 302/491/78 107/493/78 360/494/229 505/492/229
f 505/492/229 360/494/229 116/453/81 311/451/81
f 359/490/229 505/492/229 311/451/81 117/449/81
f 107/493/78 301/495/78 506/496/229 360/494/229
f 301/495/78 106/497/78 361/498/229 506/496/229
f 506/496/229 361/498/229 115/457/81 310/455/81
f 360/494/229 506/496/229 310/455/81 116/453/81
f 106/497/78 300/499/78 507/500/229 361/498/229
f 300/499/78 105/501/78 362/502/229 507/500/229
f 507/500/229 362/502/229 114/461/81 309/459/81
f 361/498/229 507/500/229 309/459/81 115/457/81
f 105/501/78 299/503/78 508/504/229 362/502/229
f 299/503/78 104/505/78 363/506/229 508/504/229
f 508/504/229 363/506/229 113/465/81 308/463/81
f 362/502/229 508/504/229 308/463/81 114/461/81
f 104/505/78 298/507/78 509/508/229 363/506/229
f 298/507/78 103/509/78 364/510/229 509/508/229
f 509/508/229 364/510/229 112/469/81 307/467/81
f 363/506/229 509/508/229 307/467/81 113/465/81
f 103/509/78 297/511/78 510/512/229 364/510/229
f 297/511/78 102/513/78 365/514/229 510/512/229
f 510/512/229 365/514/229 111/473/81 306/471/81
f 364/510/229 510/512/229 306/471/81 112/469/81
f 102/513/78 296/515/78 511/516/229 365/514/229
f 296/515/78 101/517/77 366/518/230 511/516/229
f 511/516/229 366/518/230 110/477/80 305/475/81
f 365/514/229 511/516/229 305/475/81 111/473/81
f 18/519/18 254/520/206 512/521/320 173/522/125
f 254/520/206 100/523/76 367/524/231 512/521/320
f 512/521/320 367/524/231 109/483/79 255/480/207
f 173/522/125 512/521/320 255/480/207 26/479/26
f 100/523/76 294/525/75 513/526/232 367/524/231
f 294/525/75 99/527/75 368/528/232 513/526/232
f 513/526/232 368/528/232 108/529/78 303/530/78
f 367/524/231 513/526/232 303/530/78 109/483/79
f 99/527/75 293/531/75 514/532/232 368/528/232
f 293/531/75 98/533/75 369/534/232 514/532/232
f 514/532/232 369/534/232 107/535/78 302/536/78
f 368/528/232 514/532/232 302/536/78 108/529/78
f 98/533/75 292/537/75 515/538/232 369/534/232
f 292/537/75 97/539/75 370/540/232 515/538/232
f 515/538/232 370/540/232 106/541/78 301/542/78
f 369/534/232 515/538/232 301/542/78 107/535/78
f 97/539/75 291/543/75 516/544/232 370/540/232
f 291/543/75 96/545/75 371/546/232 516/544/232
f 516/544/232 371/546/232 105/547/78 300/548/78
f 370/540/232 516/544/232 300/548/78 106/541/78
f 96/545/75 290/549/75 517/550/232 371/546/232
f 290/549/75 95/551/75 372/552/232 517/550/232
f 517/550/232 372/552/232 104/553/78 299/554/78
f 371/546/232 517/550/232 299/554/78 105/547/78
f 95/551/75 289/555/75 518/556/232 372/552/232
f 289/555/75 94/557/75 373/558/232 518/556/232
f 518/556/232 373/558/232 103/559/78 298/560/78
f 372/552/232 518/556/232 298/560/78 104/553/78
f 94/557/75 288/561/75 519/562/232 373/558/232
f 288/561/75 93/563/75 374/564/232 519/562/232
f 519/562/232 374/564/232 102/565/78 297/566/78
f 373/558/232 519/562/232 297/566/78 103/559/78
f 93/563/75 287/567/75 520/568/232 374/564/232
f 287/567/75 92/310/74 375/313/233 520/568/232
f 520/568/232 375/313/233 101/318/77 296/569/78
f 374/564/232 520/568/232 296/569/78 102/565/78
f 10/570/10 252/571/204 521/572/321 159/573/111
f 252/571/204 82/574/70 376/575/234 521/572/321
f 521/572/321 376/575/234 100/576/76 254/577/206
f 159/573/111 521/572/321 254/577/206 18/578/18
f 82/574/70 276/579/69 522/580/235 376/575/234
f 276/579/69 81/581/69 377/582/235 522/580/235
f 522/580/235 377/582/235 99/583/75 294/584/75
f 376/575/234 522/580/235 294/584/75 100/576/76
f 81/581/69 275/585/69 523/586/235 377/582/235
f 275/585/69 80/587/69 378/588/235 523/586/235
f 523/586/235 378/588/235 98/589/75 293/590/75
f 377/582/235 523/586/235 293/590/75 99/583/75
f 80/587/69 274/591/69 524/592/235 378/588/235
f 274/591/69 79/593/69 379/594/235 524/592/235
f 524/592/235 379/594/235 97/595/75 292/596/75
f 378/588/235 524/592/235 292/596/75 98/589/75
f 79/593/69 273/597/69 525/598/235 379/594/235
f 273/597/69 78/599/69 380/600/235 525/598/235
f 525/598/235 380/600/235 96/601/75 291/602/75
f 379/594/235 525/598/235 291/602/75 97/595/75
f 78/599/69 272/603/69 526/604/235 380/600/235
f 272/603/69 77/605/69 381/606/235 526/604/235
f 526/604/235 381/606/235 95/607/75 290/608/75
f 380/600/235 526/604/235 290/608/75 96/601/75
f 77/605/69 271/609/69 527/610/235 381/606/235
f 271/609/69 76/611/69 382/612/235 527/610/235
f 527/610/235 382/612/235 94/613/75 289/614/75
f 381/606/235 527/610/235 289/614/75 95/607/75
f 76/611/69 270/615/69 528/616/235 382/612/235
f 270/615/69 75/617/69 383/618/235 528/616/235
f 528/616/235 383/618/235 93/619/75 288/620/75
f 382/612/235 528/616/235 288/620/75 94/613/75
f 75/617/69 269/621/69 529/622/235 383/618/235
f 269/621/69 74/289/68 384/305/236 529/622/235
f 529/622/235 384/305/236 92/309/74 287/623/75
f 383/618/235 529/622/235 287/623/75 93/619/75
f 58/348/58 277/347/213 530/624/322 243/625/195
f 277/347/213 83/346/71 385/626/237 530/624/322
f 530/624/322 385/626/237 65/627/65 259/628/211
f 243/625/195 530/624/322 259/628/211 2/629/2
f 83/357/71 278/356/72 531/630/238 385/631/237
f 278/356/72 84/355/72 386/632/238 531/630/238
f 531/630/238 386/632/238 66/633/66 260/634/66
f 385/631/237 531/630/238 260/634/66 65/635/65
f 84/355/72 279/363/72 532/636/238 386/632/238
f 279/363/72 85/362/72 387/637/238 532/636/238
f 532/636/238 387/637/238 67/638/66 261/639/66
f 386/632/238 532/636/238 261/639/66 66/633/66
f 85/362/72 280/369/72 533/640/238 387/637/238
f 280/369/72 86/368/72 388/641/238 533/640/238
f 533/640/238 388/641/238 68/642/66 262/643/66
f 387/637/238 533/640/238 262/643/66 67/638/66
f 86/368/72 281/375/72 534/644/238 388/641/238
f 281/375/72 87/374/72 389/645/238 534/644/238
f 534/644/238 389/645/238 69/646/66 263/647/66
f 388/641/238 534/644/238 263/647/66 68/642/66
f 87/374/72 282/381/72 535/648/238 389/645/238
f 282/381/72 88/380/72 390/649/238 535/648/238
f 535/648/238 390/649/238 70/650/66 264/651/66
f 389/645/238 535/648/238 264/651/66 69/646/66
f 88/380/72 283/387/72 536/652/238 390/649/238
f 283/387/72 89/386/72 391/653/238 536/652/238
f 536/652/238 391/653/238 71/654/66 265/655/66
f 390/649/238 536/652/238 265/655/66 70/650/66
f 89/386/72 284/393/72 537/656/238 391/653/238
f 284/393/72 90/392/72 392/657/238 537/656/238
f 537/656/238 392/657/238 72/658/66 266/659/66
f 391/653/238 537/656/238 266/659/66 71/654/66
f 90/392/72 285/398/72 538/660/238 392/657/238
f 285/398/72 91/397/73 393/661/239 538/660/238
f 538/660/238 393/661/239 73/662/67 267/663/66
f 392/657/238 538/660/238 267/663/66 72/658/66
f 2/629/2 259/628/211 539/664/323 140/665/92
f 259/628/211 65/627/65 394/666/240 539/664/323
f 539/664/323 394/666/240 82/667/70 252/668/204
f 140/665/92 539/664/323 252/668/204 10/669/10
f 65/627/65 260/670/66 540/671/241 394/666/240
f 260/670/66 66/672/66 395/673/241 540/671/241
f 540/671/241 395/673/241 81/674/69 276/675/69
f 394/666/240 540/671/241 276/675/69 82/667/70
f 66/672/66 261/676/66 541/677/241 395/673/241
f 261/676/66 67/678/66 396/679/241 541/677/241
f 541/677/241 396/679/241 80/680/69 275/681/69
f 395/673/241 541/677/241 275/681/69 81/674/69
f 67/678/66 262/682/66 542/683/241 396/679/241
f 262/682/66 68/684/66 397/685/241 542/683/241
f 542/683/241 397/685/241 79/686/69 274/687/69
f 396/679/241 542/683/241 274/687/69 80/680/69
f 68/684/66 263/647/66 543/688/241 397/685/241
f 263/647/66 69/689/66 398/690/241 543/688/241
f 543/688/241 398/690/241 78/599/69 273/691/69
f 397/685/241 543/688/241 273/691/69 79/686/69
f 69/689/66 264/651/66 544/692/241 398/690/241
f 264/651/66 70/693/66 399/694/241 544/692/241
f 544/692/241 399/694/241 77/605/69 272/603/69
f 398/690/241 544/692/241 272/603/69 78/599/69
f 70/650/66 265/655/66 545/695/241 399/696/241
f 265/655/66 71/654/66 400/697/241 545/695/241
f 545/695/241 400/697/241 76/698/69 271/699/69
f 399/696/241 545/695/241 271/699/69 77/700/69
f 71/654/66 266/659/66 546/701/241 400/697/241
f 266/659/66 72/658/66 401/702/241 546/701/241
f 546/701/241 401/702/241 75/703/69 270/704/69
f 400/697/241 546/701/241 270/704/69 76/698/69
f 72/658/66 267/663/66 547/705/241 401/702/241
f 267/663/66 73/662/67 402/706/242 547/705/241
f 547/705/241 402/706/242 74/707/68 269/708/69
f 401/702/241 547/705/241 269/708/69 75/703/69
f 13/709/13 158/710/110 548/711/324 403/712/243
f 5/713/5 404/714/244 548/711/324 158/715/110
f 137/716/89 403/717/243 548/711/324 404/718/244
f 5/713/5 250/719/202 549/720/325 404/721/244
f 61/722/61 405/723/245 549/720/325 250/724/202
f 137/716/89 404/721/244 549/720/325 405/725/245
f 61/726/61 242/727/194 550/728/326 405/725/245
f 53/729/53 406/730/246 550/728/326 242/731/194
f 137/716/89 405/725/245 550/728/326 406/730/246
f 53/732/53 228/227/180 551/733/327 406/734/246
f 45/735/45 407/736/247 551/733/327 228/737/180
f 137/716/89 406/734/246 551/733/327 407/736/247
f 45/193/45 214/738/166 552/739/328 407/736/247
f 37/740/37 408/741/248 552/739/328 214/742/166
f 137/716/89 407/736/247 552/739/328 408/743/248
f 37/744/37 200/745/152 553/746/329 408/747/248
f 29/748/29 409/749/249 553/746/329 200/750/152
f 137/716/89 408/747/248 553/746/329 409/751/249
f 29/752/29 186/753/138 554/754/330 409/751/249
f 21/755/21 410/756/250 554/754/330 186/757/138
f 137/716/89 409/751/249 554/754/330 410/758/250
f 21/759/21 172/760/124 555/761/331 410/762/250
f 13/763/13 403/764/243 555/761/331 172/765/124
f 137/716/89 410/756/250 555/761/331 403/766/243
f 9/25/9 165/767/117 556/768/332 412/769/252
f 17/770/17 413/771/253 556/768/332 165/772/117
f 138/302/90 412/303/252 556/768/332 413/773/253
f 17/770/17 179/774/131 557/775/333 413/776/253
f 25/105/25 414/777/254 557/775/333 179/774/131
f 138/302/90 413/773/253 557/775/333 414/778/254
f 25/779/25 193/780/145 558/781/334 414/782/254
f 33/139/33 415/783/255 558/781/334 193/784/145
f 138/302/90 414/785/254 558/781/334 415/783/255
f 33/786/33 207/787/159 559/788/335 415/783/255
f 41/789/41 416/790/256 559/788/335 207/787/159
f 138/302/90 415/791/255 559/788/335 416/792/256
f 41/789/41 221/793/173 560/794/336 416/795/256
f 49/796/49 417/797/257 560/794/336 221/210/173
f 138/302/90 416/798/256 560/794/336 417/799/257
f 49/800/49 235/245/187 561/801/337 417/799/257
f 57/802/57 418/803/258 561/801/337 235/804/187
f 138/302/90 417/805/257 561/801/337 418/803/258
f 57/806/57 246/807/198 562/808/338 418/809/258
f 1/810/1 411/299/251 562/808/338 246/811/198
f 138/302/90 418/812/258 562/808/338 411/813/251
